<svg xmlns="http://www.w3.org/2000/svg" xmlns:xlink="http://www.w3.org/1999/xlink" width="108" height="108" viewBox="0 0 108 108">
  <defs>
    <filter id="Path_978624" x="0" y="0" width="108" height="108" filterUnits="userSpaceOnUse">
      <feOffset dy="3" input="SourceAlpha"/>
      <feGaussianBlur stdDeviation="3" result="blur"/>
      <feFlood flood-opacity="0.161"/>
      <feComposite operator="in" in2="blur"/>
      <feComposite in="SourceGraphic"/>
    </filter>
  </defs>
  <g id="Group_1164606" data-name="Group 1164606" transform="translate(-617 -1803)">
    <g id="Group_1164511" data-name="Group 1164511" transform="translate(626 1809)">
      <g id="Group_1144123" data-name="Group 1144123">
        <g transform="matrix(1, 0, 0, 1, -9, -6)" filter="url(#Path_978624)">
          <g id="Path_978624-2" data-name="Path 978624" transform="translate(9 6)" fill="#edf3fc">
            <path d="M 45 88.5 C 39.12687683105469 88.5 33.43022537231445 87.35007476806641 28.06830024719238 85.08217620849609 C 22.88852500915527 82.89131164550781 18.23629951477051 79.75458526611328 14.2408504486084 75.75914764404297 C 10.24541282653809 71.76370239257812 7.108687400817871 67.11147308349609 4.917825222015381 61.93170166015625 C 2.649924993515015 56.56977462768555 1.5 50.87312316894531 1.5 45 C 1.5 39.12687683105469 2.649924993515015 33.43022537231445 4.917825222015381 28.06830024719238 C 7.108687400817871 22.88852500915527 10.24541282653809 18.23629951477051 14.2408504486084 14.2408504486084 C 18.23629951477051 10.24541282653809 22.88852500915527 7.108687400817871 28.06830024719238 4.917825222015381 C 33.43022537231445 2.649924993515015 39.12687683105469 1.5 45 1.5 C 50.87312316894531 1.5 56.56977462768555 2.649924993515015 61.93170166015625 4.917825222015381 C 67.11147308349609 7.108687400817871 71.76370239257812 10.24541282653809 75.75914764404297 14.2408504486084 C 79.75458526611328 18.23629951477051 82.89131164550781 22.88852500915527 85.08217620849609 28.06830024719238 C 87.35007476806641 33.43022537231445 88.5 39.12687683105469 88.5 45 C 88.5 50.87312316894531 87.35007476806641 56.56977462768555 85.08217620849609 61.93170166015625 C 82.89131164550781 67.11147308349609 79.75458526611328 71.76370239257812 75.75914764404297 75.75914764404297 C 71.76370239257812 79.75458526611328 67.11147308349609 82.89131164550781 61.93170166015625 85.08217620849609 C 56.56977462768555 87.35007476806641 50.87312316894531 88.5 45 88.5 Z" stroke="none"/>
            <path d="M 45 3 C 39.32871246337891 3 33.82865524291992 4.110054016113281 28.65262985229492 6.299339294433594 C 23.65165710449219 8.414573669433594 19.15968322753906 11.44334411621094 15.301513671875 15.301513671875 C 11.44334411621094 19.15968322753906 8.414573669433594 23.65165710449219 6.299339294433594 28.65262985229492 C 4.110054016113281 33.82865524291992 3 39.32871246337891 3 45 C 3 50.67128753662109 4.110054016113281 56.17134475708008 6.299339294433594 61.34737396240234 C 8.414573669433594 66.34834289550781 11.44334411621094 70.84031677246094 15.301513671875 74.698486328125 C 19.15968322753906 78.55665588378906 23.65165710449219 81.58542633056641 28.65262985229492 83.70066070556641 C 33.82865524291992 85.88994598388672 39.32871246337891 87 45 87 C 50.67128753662109 87 56.17134475708008 85.88994598388672 61.34737396240234 83.70066070556641 C 66.34834289550781 81.58542633056641 70.84031677246094 78.55665588378906 74.698486328125 74.698486328125 C 78.55665588378906 70.84031677246094 81.58542633056641 66.34834289550781 83.70066070556641 61.34737396240234 C 85.88994598388672 56.17134475708008 87 50.67128753662109 87 45 C 87 39.32871246337891 85.88994598388672 33.82865524291992 83.70066070556641 28.65262985229492 C 81.58542633056641 23.65165710449219 78.55665588378906 19.15968322753906 74.698486328125 15.301513671875 C 70.84031677246094 11.44334411621094 66.34834289550781 8.414573669433594 61.34737396240234 6.299339294433594 C 56.17134475708008 4.110054016113281 50.67128753662109 3 45 3 M 45 0 C 69.85281372070312 0 90 20.14718627929688 90 45 C 90 69.85281372070312 69.85281372070312 90 45 90 C 20.14718627929688 90 0 69.85281372070312 0 45 C 0 20.14718627929688 20.14718627929688 0 45 0 Z" stroke="none" fill="#56838a"/>
          </g>
        </g>
      </g>
    </g>
    <g id="failure_9375406" transform="translate(605.748 1812.119)">
      <g id="Group_1164544" data-name="Group 1164544" transform="translate(43.16 9.019)">
        <g id="Group_1164541" data-name="Group 1164541" transform="translate(0 7.847)">
          <path id="Path_982946" data-name="Path 982946" d="M51.216,77.91H83.969a1.031,1.031,0,0,1,.755.313l6,6a1.032,1.032,0,0,1,.313.755v44.859a1.071,1.071,0,0,1-1.068,1.068H51.216a1.07,1.07,0,0,1-1.068-1.068V78.978A1.07,1.07,0,0,1,51.216,77.91Z" transform="translate(-50.148 -77.91)" fill="#eceff1" fill-rule="evenodd"/>
          <path id="Path_982947" data-name="Path 982947" d="M51.216,77.91h1.955V130.9H51.216a1.07,1.07,0,0,1-1.068-1.068V78.978a1.07,1.07,0,0,1,1.068-1.068Z" transform="translate(-50.148 -77.91)" fill="#d1d1d6" fill-rule="evenodd"/>
          <path id="Path_982948" data-name="Path 982948" d="M320.462,78.64a1.074,1.074,0,0,1,.313.22l6,6a1.072,1.072,0,0,1,.22.313h-6a.535.535,0,0,1-.534-.534Z" transform="translate(-286.198 -78.547)" fill="#a79ba7" fill-rule="evenodd"/>
        </g>
        <g id="Group_1164542" data-name="Group 1164542" transform="translate(6.486 0)">
          <path id="Path_982949" data-name="Path 982949" d="M210.1,146.093l-5.261,4.363,2.822,6.551a.283.283,0,0,0,.5.037l1.821-2.935,3.384.693a.283.283,0,0,0,.317-.39Z" transform="translate(-191.721 -129.603)" fill="#ffe177" fill-rule="evenodd"/>
          <path id="Path_982950" data-name="Path 982950" d="M228.358,146.093l-.7.577L231,154.413a.279.279,0,0,1-.017.258l.644.132a.283.283,0,0,0,.317-.39Zm-2.612,10.515,1.657-2.67.838.172-1.821,2.935a.283.283,0,0,1-.5-.037Z" transform="translate(-209.974 -129.603)" fill="#ffd064" fill-rule="evenodd"/>
          <path id="Path_982951" data-name="Path 982951" d="M117.9,159.388l-3.783,8.125a.283.283,0,0,1-.5.023l-1.736-2.987-3.4.595a.283.283,0,0,1-.305-.4l3.742-8.036Z" transform="translate(-107.283 -138.873)" fill="#ffe177" fill-rule="evenodd"/>
          <path id="Path_982952" data-name="Path 982952" d="M117.9,175.649l-3.783,8.125a.283.283,0,0,1-.5.023l-1.736-2.987-3.4.595a.283.283,0,0,1-.305-.4l.23-.494,3-.524,1.736,2.987a.283.283,0,0,0,.5-.023l3.549-7.622Z" transform="translate(-107.283 -155.134)" fill="#ffd064" fill-rule="evenodd"/>
          <path id="Path_982953" data-name="Path 982953" d="M114.184,16.488c2.262,1.693,1.749,1.506,4.57,1.663a2.379,2.379,0,0,1,2.211,1.855c.234,1,.348,2.256,1.11,2.972l1.322,1.24a2.379,2.379,0,0,1,.5,2.843c-1.275,2.522-1.18,1.984-.845,4.79a2.379,2.379,0,0,1-1.443,2.5c-2.6,1.112-2.179.761-3.726,3.126a2.379,2.379,0,0,1-2.712.987c-2.7-.817-2.159-.817-4.863,0a2.379,2.379,0,0,1-2.712-.987c-1.547-2.365-1.128-2.014-3.726-3.126a2.379,2.379,0,0,1-1.443-2.5c.335-2.806.43-2.268-.845-4.79a2.379,2.379,0,0,1,.5-2.843c2.06-1.934,1.787-1.461,2.432-4.212a2.379,2.379,0,0,1,2.211-1.855c2.821-.157,2.308.03,4.57-1.663A2.379,2.379,0,0,1,114.184,16.488Z" transform="translate(-101.317 -16)" fill="#8ac9fe" fill-rule="evenodd"/>
          <path id="Path_982954" data-name="Path 982954" d="M166.97,16.488c2.262,1.693,1.749,1.506,4.57,1.663a2.379,2.379,0,0,1,2.211,1.855c.234,1,.348,2.256,1.11,2.972l1.322,1.24a2.379,2.379,0,0,1,.5,2.843c-1.275,2.522-1.18,1.984-.845,4.79a2.379,2.379,0,0,1-1.443,2.5c-2.6,1.112-2.179.761-3.726,3.126a2.377,2.377,0,0,1-2.621,1.013,2.392,2.392,0,0,0,1.384-1.013c1.547-2.365,1.128-2.014,3.726-3.126a2.379,2.379,0,0,0,1.443-2.5c-.335-2.806-.43-2.268.845-4.79a2.379,2.379,0,0,0-.5-2.843l-1.322-1.24c-.762-.715-.876-1.974-1.11-2.972a2.379,2.379,0,0,0-2.211-1.855c-2.821-.157-2.308.03-4.57-1.663a2.447,2.447,0,0,0-.825-.4,2.379,2.379,0,0,1,2.062.4ZM164.908,37.93c-.413.094-.946.272-1.813.534a2.414,2.414,0,0,1-1.329.026l.092-.026C163.7,37.909,164.033,37.731,164.908,37.93Z" transform="translate(-154.104 -16)" fill="#60b7ff" fill-rule="evenodd"/>
          <circle id="Ellipse_11666" data-name="Ellipse 11666" cx="6.741" cy="6.741" r="6.741" transform="translate(3.311 6.268) rotate(-13.3)" fill="#eceff1"/>
          <path id="Path_982955" data-name="Path 982955" d="M145,51.854q.272,0,.539.021a6.741,6.741,0,0,0,0,13.439q-.267.021-.539.021a6.741,6.741,0,0,1,0-13.482Z" transform="translate(-133.574 -47.309)" fill="#d1d1d6" fill-rule="evenodd"/>
        </g>
        <g id="Group_1164543" data-name="Group 1164543" transform="translate(29.197 37.817)">
          <ellipse id="Ellipse_11667" data-name="Ellipse 11667" cx="11.297" cy="11.297" rx="11.297" ry="11.297" transform="matrix(0.999, -0.036, 0.036, 0.999, 0, 0.813)" fill="#fe646f"/>
          <path id="Path_982956" data-name="Path 982956" d="M365.96,317.746a11.3,11.3,0,1,1,0,22.595c-.331,0-.658-.015-.982-.043a11.3,11.3,0,0,0,0-22.509C365.3,317.761,365.629,317.746,365.96,317.746Z" transform="translate(-354.269 -317.315)" fill="#fd4755" fill-rule="evenodd"/>
          <path id="Path_982957" data-name="Path 982957" d="M329.389,365.941l-3.04-3.04a1.7,1.7,0,0,1,2.405-2.405l3.04,3.04,3.04-3.04a1.7,1.7,0,1,1,2.405,2.405l-3.04,3.04,3.04,3.04a1.7,1.7,0,1,1-2.405,2.405l-3.04-3.04-3.04,3.04a1.7,1.7,0,0,1-2.405-2.405Z" transform="translate(-320.103 -354.213)" fill="#eceff1" fill-rule="evenodd"/>
          <path id="Path_982958" data-name="Path 982958" d="M329.39,365.942l-3.04-3.04a1.7,1.7,0,0,1,1.836-2.78,1.687,1.687,0,0,0-.569.375,1.7,1.7,0,0,0,0,2.405l3.04,3.04-3.04,3.04a1.7,1.7,0,0,0,.569,2.78,1.7,1.7,0,0,1-1.836-2.78Zm2.405-2.405,3.04-3.04a1.705,1.705,0,0,1,1.836-.375,1.688,1.688,0,0,0-.569.375l-3.673,3.673Zm4.876,8.225a1.705,1.705,0,0,1-1.836-.375l-3.04-3.04.634-.634,3.673,3.673A1.689,1.689,0,0,0,336.671,371.762Z" transform="translate(-320.104 -354.214)" fill="#d1d1d6" fill-rule="evenodd"/>
        </g>
      </g>
      <path id="Path_982959" data-name="Path 982959" d="M59.642,23.518a1.014,1.014,0,0,0,.682-.263l4.848-4.4a1.014,1.014,0,0,0-1.363-1.5l-4.133,3.752-1.313-1.313a1.014,1.014,0,1,0-1.435,1.434l2,2a1.014,1.014,0,0,0,.718.3Zm-4.3-3.213a5.727,5.727,0,1,1,5.727,5.725A5.733,5.733,0,0,1,55.341,20.306Zm-2.028,0a7.755,7.755,0,1,1,7.755,7.753A7.763,7.763,0,0,1,53.313,20.306ZM88.775,53.837a.688.688,0,0,0-.971,0l-3.04,3.04a1.014,1.014,0,0,1-1.434,0l-3.04-3.04a.687.687,0,0,0-.971.971l3.04,3.039a1.012,1.012,0,0,1,0,1.434l-3.04,3.041a.687.687,0,1,0,.971.971l3.04-3.04a1.013,1.013,0,0,1,1.434,0l3.04,3.04a.686.686,0,1,0,.971-.971l-3.039-3.041a1.015,1.015,0,0,1,0-1.434l3.039-3.039A.689.689,0,0,0,88.775,53.837Zm1.434,2.4-2.322,2.324,2.322,2.322a2.714,2.714,0,0,1-3.838,3.839L84.048,62.4l-2.322,2.322a2.715,2.715,0,0,1-3.84-3.839l2.323-2.322-2.323-2.324a2.715,2.715,0,0,1,3.84-3.838l2.322,2.322L86.371,52.4a2.714,2.714,0,0,1,3.838,3.838Zm4.122,2.324A10.294,10.294,0,0,1,84.047,68.847h-.005A10.283,10.283,0,1,1,94.331,58.565ZM77.286,68.847H44.227a.056.056,0,0,1-.054-.054V17.935a.058.058,0,0,1,.054-.055h4.591a3.407,3.407,0,0,0,.188,2.658c.119.234.225.444.322.631a6.106,6.106,0,0,1,.61,1.375,6.074,6.074,0,0,1-.1,1.5c-.027.209-.056.442-.086.7A3.4,3.4,0,0,0,51.8,28.3l.574.243L49.39,34.954a1.015,1.015,0,0,0,1.094,1.427l3.241-.567,1.653,2.846a1.015,1.015,0,0,0,.877.5H56.3a1.014,1.014,0,0,0,.873-.586l3.033-6.515a3.306,3.306,0,0,1,.861-.179,6.112,6.112,0,0,1,1.46.361l.183.057,2.163,5.021a1.012,1.012,0,0,0,.855.61l.075,0a1.014,1.014,0,0,0,.862-.48l1.735-2.8,3.222.661a1.015,1.015,0,0,0,1.136-1.394L70.336,28.3h0a3.4,3.4,0,0,0,2.051-3.553c-.032-.261-.061-.495-.088-.7a6.161,6.161,0,0,1-.1-1.5,6.1,6.1,0,0,1,.609-1.375c.1-.187.2-.4.323-.631a3.4,3.4,0,0,0,.186-2.658h3.092v5.077a1.55,1.55,0,0,0,1.548,1.549h5.077V46.295a12.284,12.284,0,0,0-7.562,3.447H58.081a1.014,1.014,0,0,0,0,2.028H73.787a12.276,12.276,0,0,0-1.05,1.935H58.081a1.014,1.014,0,0,0,0,2.028H72.066a12.31,12.31,0,0,0-.329,2.832c0,.32.011.639.037.955H58.081a1.014,1.014,0,0,0,0,2.028H72.1a12.233,12.233,0,0,0,.66,1.935H58.081a1.014,1.014,0,0,0,0,2.028H73.89a12.386,12.386,0,0,0,3.4,3.336ZM52.05,34.049l2.023-.354a1.016,1.016,0,0,1,1.051.489l1.033,1.777,1.567-3.368a3.4,3.4,0,0,1-2.648-1.543l-.385-.6c-.245-.379-.422-.654-.569-.856Zm15.4-3.594c-.116.177-.242.374-.387.6a3.406,3.406,0,0,1-2.055,1.456l.961,2.228,1.083-1.745a1.011,1.011,0,0,1,1.064-.459l2.013.412-1.642-3.812a1.537,1.537,0,0,0-.152.109A6.064,6.064,0,0,0,67.448,30.456ZM50.816,19.623a1.367,1.367,0,0,1,.29-1.647c.189-.177.357-.334.51-.475a4.888,4.888,0,0,0,2.059-3.564c.045-.2.1-.427.157-.68a1.368,1.368,0,0,1,1.28-1.075l.7-.035a4.9,4.9,0,0,0,3.869-1.408c.165-.126.348-.266.557-.42a1.366,1.366,0,0,1,1.671,0c.208.155.391.294.558.42a4.893,4.893,0,0,0,3.867,1.408l.7.035a1.369,1.369,0,0,1,1.28,1.075c.058.252.11.477.156.68A4.9,4.9,0,0,0,70.52,17.5c.152.142.322.3.511.475a1.372,1.372,0,0,1,.29,1.647c-.118.231-.223.436-.317.621A4.887,4.887,0,0,0,70.29,24.3c.026.205.054.434.085.692a1.367,1.367,0,0,1-.835,1.447l-.643.273a4.889,4.889,0,0,0-3.154,2.645c-.112.175-.237.369-.379.585a1.368,1.368,0,0,1-1.57.572c-.249-.075-.469-.143-.667-.2a7.221,7.221,0,0,0-2.058-.455,7.221,7.221,0,0,0-2.058.455c-.2.061-.418.129-.667.2a1.369,1.369,0,0,1-1.57-.572c-.142-.216-.266-.41-.379-.585A4.89,4.89,0,0,0,53.24,26.71l-.641-.273a1.369,1.369,0,0,1-.837-1.447c.032-.258.06-.487.087-.692a4.9,4.9,0,0,0-.715-4.054c-.1-.185-.2-.39-.317-.621Zm27.621-.308v3.163H81.6Zm17.922,39.25a12.325,12.325,0,0,1-12.312,12.31H44.227a2.084,2.084,0,0,1-2.082-2.082V17.935a2.085,2.085,0,0,1,2.082-2.083h6.184a4.894,4.894,0,0,0,.868-.922,6.016,6.016,0,0,0,.417-1.445c.047-.205.1-.434.16-.691A3.4,3.4,0,0,1,55,10.159c.263-.015.5-.027.708-.037a6.113,6.113,0,0,0,1.5-.16,6.173,6.173,0,0,0,1.249-.839q.251-.192.565-.427a3.4,3.4,0,0,1,4.1,0c.212.157.4.3.567.427a6.07,6.07,0,0,0,1.249.839,6.106,6.106,0,0,0,1.5.16c.21.01.445.021.708.037a3.4,3.4,0,0,1,3.142,2.636c.06.257.112.486.159.691a6.1,6.1,0,0,0,.417,1.445,4.842,4.842,0,0,0,.868.922H76.98a2.044,2.044,0,0,1,1.472.61l6,6a2.043,2.043,0,0,1,.609,1.473V46.295a12.329,12.329,0,0,1,11.3,12.27ZM53.95,59.816a1.015,1.015,0,0,0-1.434,0l-1.265,1.265-1.265-1.265a1.014,1.014,0,0,0-1.434,1.434l1.264,1.265-1.264,1.264a1.014,1.014,0,0,0,1.434,1.435l1.265-1.265,1.265,1.265a1.014,1.014,0,1,0,1.434-1.435l-1.265-1.264L53.95,61.25A1.016,1.016,0,0,0,53.95,59.816Zm0-9.777a1.013,1.013,0,0,0-1.434,0L51.251,51.3l-1.265-1.265a1.014,1.014,0,1,0-1.434,1.434l1.264,1.265L48.552,54a1.014,1.014,0,1,0,1.434,1.434l1.265-1.265,1.265,1.265A1.014,1.014,0,1,0,53.95,54l-1.265-1.265,1.265-1.265A1.016,1.016,0,0,0,53.95,50.039Zm0-9.778a1.015,1.015,0,0,0-1.434,0l-1.265,1.265-1.265-1.265A1.014,1.014,0,0,0,48.552,41.7l1.264,1.265-1.264,1.265a1.014,1.014,0,0,0,1.434,1.433l1.265-1.265,1.265,1.265a1.014,1.014,0,1,0,1.434-1.433L52.685,42.96,53.95,41.7A1.016,1.016,0,0,0,53.95,40.261Zm4.132,5.7H78.557a1.014,1.014,0,0,0,0-2.029H58.081a1.014,1.014,0,0,0,0,2.029Zm-1.014-4.978a1.014,1.014,0,0,0,1.014,1.014H78.557a1.014,1.014,0,1,0,0-2.028H58.081A1.014,1.014,0,0,0,57.068,40.979Z" transform="translate(0)" fill-rule="evenodd"/>
    </g>
  </g>
</svg>
