<svg xmlns="http://www.w3.org/2000/svg" xmlns:xlink="http://www.w3.org/1999/xlink" width="113" height="113" viewBox="0 0 113 113">
  <defs>
    <filter id="Path_982547" x="0" y="0" width="113" height="113" filterUnits="userSpaceOnUse">
      <feOffset dy="3" input="SourceAlpha"/>
      <feGaussianBlur stdDeviation="3" result="blur"/>
      <feFlood flood-opacity="0.161"/>
      <feComposite operator="in" in2="blur"/>
      <feComposite in="SourceGraphic"/>
    </filter>
  </defs>
  <g id="Group_1164579" data-name="Group 1164579" transform="translate(-198 -683)">
    <g id="Group_1164533" data-name="Group 1164533">
      <g id="Group_1164353" data-name="Group 1164353" transform="translate(207 689)">
        <g id="Group_1164237" data-name="Group 1164237">
          <g id="Group_1163948" data-name="Group 1163948">
            <g id="Group_1158168" data-name="Group 1158168" transform="translate(0)">
              <g id="Group_1152576" data-name="Group 1152576">
                <g id="Group_1148633" data-name="Group 1148633">
                  <g id="Group_1148525" data-name="Group 1148525">
                    <g transform="matrix(1, 0, 0, 1, -9, -6)" filter="url(#Path_982547)">
                      <g id="Path_982547-2" data-name="Path 982547" transform="translate(9 6)" fill="#f4fdfe">
                        <path d="M 47.5 93.5 C 41.28937149047852 93.5 35.26533508300781 92.28397369384766 29.59518623352051 89.88570404052734 C 24.11771965026855 87.56893157958984 19.19813346862793 84.25196075439453 14.97309303283691 80.02691650390625 C 10.74804019927979 75.80186462402344 7.431066513061523 70.88229370117188 5.114293098449707 65.40481567382812 C 2.716026782989502 59.73468017578125 1.5 53.71062850952148 1.5 47.5 C 1.5 41.28937149047852 2.716026782989502 35.26533508300781 5.114293098449707 29.59518623352051 C 7.431066513061523 24.11771965026855 10.74804019927979 19.19813346862793 14.97309303283691 14.97309303283691 C 19.19813346862793 10.74804019927979 24.11771965026855 7.431066513061523 29.59518623352051 5.114293098449707 C 35.26533508300781 2.716026782989502 41.28937149047852 1.5 47.5 1.5 C 53.71062850952148 1.5 59.73468017578125 2.716026782989502 65.40481567382812 5.114293098449707 C 70.88229370117188 7.431066513061523 75.80186462402344 10.74804019927979 80.02691650390625 14.97309303283691 C 84.25196075439453 19.19813346862793 87.56893157958984 24.11771965026855 89.88570404052734 29.59518623352051 C 92.28397369384766 35.26533508300781 93.5 41.28937149047852 93.5 47.5 C 93.5 53.71062850952148 92.28397369384766 59.73468017578125 89.88570404052734 65.40481567382812 C 87.56893157958984 70.88229370117188 84.25196075439453 75.80186462402344 80.02691650390625 80.02691650390625 C 75.80186462402344 84.25196075439453 70.88229370117188 87.56893157958984 65.40481567382812 89.88570404052734 C 59.73468017578125 92.28397369384766 53.71062850952148 93.5 47.5 93.5 Z" stroke="none"/>
                        <path d="M 47.5 3 C 41.49121475219727 3 35.66376876831055 4.176155090332031 30.17950439453125 6.495796203613281 C 24.88084411621094 8.736953735351562 20.12152099609375 11.94598388671875 16.03375244140625 16.03375244140625 C 11.94598388671875 20.12152099609375 8.736953735351562 24.88084411621094 6.495796203613281 30.17950439453125 C 4.176155090332031 35.66376876831055 3 41.49121475219727 3 47.5 C 3 53.50878524780273 4.176155090332031 59.33623123168945 6.495796203613281 64.82049560546875 C 8.736953735351562 70.11915588378906 11.94598388671875 74.87847900390625 16.03375244140625 78.96624755859375 C 20.12152099609375 83.05401611328125 24.88084411621094 86.26304626464844 30.17950439453125 88.50419616699219 C 35.66376876831055 90.82384490966797 41.49121475219727 92 47.5 92 C 53.50878524780273 92 59.33623123168945 90.82384490966797 64.82049560546875 88.50419616699219 C 70.11915588378906 86.26304626464844 74.87847900390625 83.05401611328125 78.96624755859375 78.96624755859375 C 83.05401611328125 74.87847900390625 86.26304626464844 70.11915588378906 88.50419616699219 64.82049560546875 C 90.82384490966797 59.33623123168945 92 53.50878524780273 92 47.5 C 92 41.49121475219727 90.82384490966797 35.66376876831055 88.50419616699219 30.17950439453125 C 86.26304626464844 24.88084411621094 83.05401611328125 20.12152099609375 78.96624755859375 16.03375244140625 C 74.87847900390625 11.94598388671875 70.11915588378906 8.736953735351562 64.82049560546875 6.495796203613281 C 59.33623123168945 4.176155090332031 53.50878524780273 3 47.5 3 M 47.5 0 C 73.7335205078125 0 95 21.2664794921875 95 47.5 C 95 73.7335205078125 73.7335205078125 95 47.5 95 C 21.2664794921875 95 0 73.7335205078125 0 47.5 C 0 21.2664794921875 21.2664794921875 0 47.5 0 Z" stroke="none" fill="#56838a"/>
                      </g>
                    </g>
                  </g>
                </g>
              </g>
            </g>
          </g>
        </g>
      </g>
      <g id="university_11934233" transform="translate(217.144 699.399)">
        <g id="Group_1164532" data-name="Group 1164532" transform="translate(9.79 9.805)">
          <g id="Group_1164527" data-name="Group 1164527" transform="translate(0 14.592)">
            <path id="Path_982893" data-name="Path 982893" d="M16.345,277.989H31.9V249.7H16.345a.345.345,0,0,0-.345.345v27.6A.345.345,0,0,0,16.345,277.989Z" transform="translate(-16 -237.448)" fill="#f4f6f8" fill-rule="evenodd"/>
            <path id="Path_982894" data-name="Path 982894" d="M46.345,295.275h7.024a.345.345,0,0,0,.345-.345V280.044a.345.345,0,0,0-.345-.345H46.345a.345.345,0,0,0-.345.345v14.887A.345.345,0,0,0,46.345,295.275Z" transform="translate(-42.554 -264.003)" fill="#a4d4ff" fill-rule="evenodd"/>
            <path id="Path_982895" data-name="Path 982895" d="M164.177,183.58H143.152V149.717l10.327-6.622a.338.338,0,0,1,.372,0l10.327,6.622Z" transform="translate(-128.547 -143.04)" fill="#e4e8eb" fill-rule="evenodd"/>
            <path id="Path_982896" data-name="Path 982896" d="M190.887,393.491h9.45a.345.345,0,0,0,.345-.345V382.954a.345.345,0,0,0-.345-.345h-9.45a.345.345,0,0,0-.345.345v10.193A.345.345,0,0,0,190.887,393.491Z" transform="translate(-170.494 -355.092)" fill="#937661" fill-rule="evenodd"/>
            <path id="Path_982897" data-name="Path 982897" d="M170.576,230.792h14.116a.345.345,0,0,1,.345.345v2.924a.345.345,0,0,1-.345.345H170.576a.345.345,0,0,1-.345-.345v-2.924a.345.345,0,0,1,.345-.345Z" transform="translate(-152.516 -220.713)" fill="#a4d4ff" fill-rule="evenodd"/>
            <path id="Path_982898" data-name="Path 982898" d="M170.576,304.513h14.116a.345.345,0,0,1,.345.345v2.924a.345.345,0,0,1-.345.345H170.576a.345.345,0,0,1-.345-.345v-2.924A.345.345,0,0,1,170.576,304.513Z" transform="translate(-152.516 -285.966)" fill="#a4d4ff" fill-rule="evenodd"/>
            <path id="Path_982899" data-name="Path 982899" d="M110.222,462.991H138.2a.345.345,0,0,0,.345-.345v-3.594a.345.345,0,0,0-.345-.345h-27.98a.345.345,0,0,0-.345.345v3.594A.345.345,0,0,0,110.222,462.991Z" transform="translate(-99.094 -422.451)" fill="#cad0d7" fill-rule="evenodd"/>
            <path id="Path_982900" data-name="Path 982900" d="M143.152,149.717h21.025L153.851,143.1a.338.338,0,0,0-.372,0Z" transform="translate(-128.547 -143.04)" fill="#f76c82" fill-rule="evenodd"/>
          </g>
          <g id="Group_1164528" data-name="Group 1164528" transform="translate(33.33 0)">
            <path id="Path_982901" data-name="Path 982901" d="M326.706,16H307.457a1.279,1.279,0,0,0-1.277,1.277V29.465a1.279,1.279,0,0,0,1.277,1.277h7.565s.1,5.021,6.285,5.794a6.737,6.737,0,0,1-1.111-5.794h6.509a1.279,1.279,0,0,0,1.277-1.277V17.277A1.279,1.279,0,0,0,326.706,16Z" transform="translate(-306.18 -16)" fill="#c6ea94" fill-rule="evenodd"/>
          </g>
          <g id="Group_1164531" data-name="Group 1164531" transform="translate(2.351 0.019)">
            <g id="Group_1164529" data-name="Group 1164529">
              <path id="Path_982902" data-name="Path 982902" d="M71.948,56.481a24.126,24.126,0,0,0,11.777,0V50.652H71.948Z" transform="translate(-67.873 -46.69)" fill="#636c77" fill-rule="evenodd"/>
              <path id="Path_982903" data-name="Path 982903" d="M56.163,19.446,46.544,16.18a.332.332,0,0,0-.222,0L36.7,19.446a.345.345,0,0,0,0,.653l9.619,3.266a.332.332,0,0,0,.222,0L56.164,20.1a.345.345,0,0,0,0-.653Z" transform="translate(-36.47 -16.161)" fill="#424852" fill-rule="evenodd"/>
            </g>
            <g id="Group_1164530" data-name="Group 1164530" transform="translate(30.811 26.499)">
              <path id="Path_982904" data-name="Path 982904" d="M356.159,251.95a5.077,5.077,0,1,0,5.077-5.076A5.077,5.077,0,0,0,356.159,251.95Z" transform="translate(-350.251 -246.874)" fill="#efc7a4" fill-rule="evenodd"/>
              <path id="Path_982905" data-name="Path 982905" d="M326.689,371.734c0,6.067-21.97,6.067-21.97,0a10.985,10.985,0,0,1,21.97,0Z" transform="translate(-304.719 -347.67)" fill="#66d4f1" fill-rule="evenodd"/>
            </g>
          </g>
        </g>
        <path id="Path_982906" data-name="Path 982906" d="M41.5,45.752H28.311V43.747H41.5Zm.805-3.614h-14.8a.806.806,0,0,0-.805.8v3.613a.805.805,0,0,0,.805.8h14.8a.805.805,0,0,0,.805-.8V42.943A.806.806,0,0,0,42.309,42.139ZM41.5,37.285H28.311V35.279H41.5Zm.805-3.613h-14.8a.806.806,0,0,0-.805.8v3.613a.806.806,0,0,0,.805.8h14.8a.806.806,0,0,0,.805-.8V34.475A.806.806,0,0,0,42.309,33.671ZM61.215,63.045a22.264,22.264,0,0,1-7.275,1.088,22.217,22.217,0,0,1-7.275-1.088c-1.33-.488-2.908-1.346-2.908-2.658a10.18,10.18,0,1,1,20.36,0C64.117,61.7,62.539,62.557,61.215,63.045ZM10.595,37.451h13v22.4H20.572a.8.8,0,0,0-.8.8v3.479H10.595ZM34.91,25.288l7.767,4.981H27.138ZM42.163,59.85a11.731,11.731,0,0,1,2.454-6.672v-21.3H25.2V59.85h3.837V51.913a.8.8,0,0,1,.805-.8H39.98a.8.8,0,0,1,.8.8V59.85Zm-2.989,0H30.641V52.717h8.534Zm3.156,1.608H21.377v2.675H45.109A4.951,4.951,0,0,1,42.331,61.458ZM53.94,48.6a11.743,11.743,0,0,0-7.718,2.881V31.073a.8.8,0,0,0-.368-.676L35.343,23.656a.811.811,0,0,0-.87,0L23.96,30.4a.811.811,0,0,0-.368.676v4.77H9.789a.805.805,0,0,0-.805.8v28.29a.805.805,0,0,0,.805.8H53.94c5.864,0,11.788-1.655,11.788-5.353A11.8,11.8,0,0,0,53.94,48.6Zm-4.275-7.2a4.272,4.272,0,1,1,4.275,4.274A4.28,4.28,0,0,1,49.665,41.4Zm10.155,0a5.883,5.883,0,1,1-5.88-5.881A5.887,5.887,0,0,1,59.821,41.4Zm-45.778-.5V54.865h6.1V40.9ZM20.95,56.473a.805.805,0,0,0,.805-.8V40.093a.805.805,0,0,0-.805-.8H13.237a.805.805,0,0,0-.805.8V55.669a.805.805,0,0,0,.805.8ZM61.626,20.922a.805.805,0,0,1-.805.8h-13.6a.8.8,0,1,1,0-1.608h13.6A.806.806,0,0,1,61.626,20.922Zm0-3.747a.805.805,0,0,1-.805.8h-13.6a.8.8,0,1,1,0-1.608h13.6A.806.806,0,0,1,61.626,17.175Zm0-3.746a.806.806,0,0,1-.805.8h-13.6a.8.8,0,1,1,0-1.608h13.6A.805.805,0,0,1,61.626,13.43Zm2.492,9.84a.472.472,0,0,1-.47.473H57.14a.81.81,0,0,0-.789.626,8.09,8.09,0,0,0,.313,4.808,5.3,5.3,0,0,1-3.9-4.647.806.806,0,0,0-.805-.787H44.4a.472.472,0,0,1-.47-.473V11.082a.472.472,0,0,1,.47-.473H63.647a.472.472,0,0,1,.47.473ZM63.647,9H44.4a2.085,2.085,0,0,0-2.081,2.081V23.27A2.085,2.085,0,0,0,44.4,25.351h6.864a6.9,6.9,0,0,0,.838,2.212c.816,1.389,2.535,3.136,6.053,3.576a.891.891,0,0,0,.1.006.806.806,0,0,0,.605-1.335A5.765,5.765,0,0,1,57.8,25.351h5.843a2.084,2.084,0,0,0,2.081-2.081V11.082A2.085,2.085,0,0,0,63.647,9Zm-41.54,1.653,8.188,2.781-8.188,2.781-8.188-2.781Zm5.086,8.329v-2.8l-4.826,1.639a.815.815,0,0,1-.519,0l-4.826-1.639v2.8a22.806,22.806,0,0,0,5.086.556,22.807,22.807,0,0,0,5.086-.556ZM10.151,22.9h2.529a.357.357,0,0,0,.335-.488l-.8-2.035V14.557l3.194,1.084v3.973a.805.805,0,0,0,.605.777,24.016,24.016,0,0,0,6.091.756,24.046,24.046,0,0,0,6.091-.756.807.807,0,0,0,.6-.777V15.641L33.056,14.2a.8.8,0,0,0,0-1.523l-10.69-3.63a.82.82,0,0,0-.519,0l-10.691,3.63a.808.808,0,0,0-.546.762v6.947l-.794,2.035A.357.357,0,0,0,10.151,22.9Z" fill-rule="evenodd"/>
      </g>
    </g>
  </g>
</svg>
