<svg xmlns="http://www.w3.org/2000/svg" xmlns:xlink="http://www.w3.org/1999/xlink" width="108" height="108" viewBox="0 0 108 108">
  <defs>
    <filter id="Path_978624" x="0" y="0" width="108" height="108" filterUnits="userSpaceOnUse">
      <feOffset dy="3" input="SourceAlpha"/>
      <feGaussianBlur stdDeviation="3" result="blur"/>
      <feFlood flood-opacity="0.161"/>
      <feComposite operator="in" in2="blur"/>
      <feComposite in="SourceGraphic"/>
    </filter>
  </defs>
  <g id="Group_1164620" data-name="Group 1164620" transform="translate(-196 -7848)">
    <g id="Group_1164524" data-name="Group 1164524" transform="translate(205 7854)">
      <g id="Group_1144123" data-name="Group 1144123">
        <g transform="matrix(1, 0, 0, 1, -9, -6)" filter="url(#Path_978624)">
          <g id="Path_978624-2" data-name="Path 978624" transform="translate(9 6)" fill="#edf3fc">
            <path d="M 45 88.5 C 39.12687683105469 88.5 33.43022537231445 87.35007476806641 28.06830024719238 85.08217620849609 C 22.88852500915527 82.89131164550781 18.23629951477051 79.75458526611328 14.2408504486084 75.75914764404297 C 10.24541282653809 71.76370239257812 7.108687400817871 67.11147308349609 4.917825222015381 61.93170166015625 C 2.649924993515015 56.56977462768555 1.5 50.87312316894531 1.5 45 C 1.5 39.12687683105469 2.649924993515015 33.43022537231445 4.917825222015381 28.06830024719238 C 7.108687400817871 22.88852500915527 10.24541282653809 18.23629951477051 14.2408504486084 14.2408504486084 C 18.23629951477051 10.24541282653809 22.88852500915527 7.108687400817871 28.06830024719238 4.917825222015381 C 33.43022537231445 2.649924993515015 39.12687683105469 1.5 45 1.5 C 50.87312316894531 1.5 56.56977462768555 2.649924993515015 61.93170166015625 4.917825222015381 C 67.11147308349609 7.108687400817871 71.76370239257812 10.24541282653809 75.75914764404297 14.2408504486084 C 79.75458526611328 18.23629951477051 82.89131164550781 22.88852500915527 85.08217620849609 28.06830024719238 C 87.35007476806641 33.43022537231445 88.5 39.12687683105469 88.5 45 C 88.5 50.87312316894531 87.35007476806641 56.56977462768555 85.08217620849609 61.93170166015625 C 82.89131164550781 67.11147308349609 79.75458526611328 71.76370239257812 75.75914764404297 75.75914764404297 C 71.76370239257812 79.75458526611328 67.11147308349609 82.89131164550781 61.93170166015625 85.08217620849609 C 56.56977462768555 87.35007476806641 50.87312316894531 88.5 45 88.5 Z" stroke="none"/>
            <path d="M 45 3 C 39.32871246337891 3 33.82865524291992 4.110054016113281 28.65262985229492 6.299339294433594 C 23.65165710449219 8.414573669433594 19.15968322753906 11.44334411621094 15.301513671875 15.301513671875 C 11.44334411621094 19.15968322753906 8.414573669433594 23.65165710449219 6.299339294433594 28.65262985229492 C 4.110054016113281 33.82865524291992 3 39.32871246337891 3 45 C 3 50.67128753662109 4.110054016113281 56.17134475708008 6.299339294433594 61.34737396240234 C 8.414573669433594 66.34834289550781 11.44334411621094 70.84031677246094 15.301513671875 74.698486328125 C 19.15968322753906 78.55665588378906 23.65165710449219 81.58542633056641 28.65262985229492 83.70066070556641 C 33.82865524291992 85.88994598388672 39.32871246337891 87 45 87 C 50.67128753662109 87 56.17134475708008 85.88994598388672 61.34737396240234 83.70066070556641 C 66.34834289550781 81.58542633056641 70.84031677246094 78.55665588378906 74.698486328125 74.698486328125 C 78.55665588378906 70.84031677246094 81.58542633056641 66.34834289550781 83.70066070556641 61.34737396240234 C 85.88994598388672 56.17134475708008 87 50.67128753662109 87 45 C 87 39.32871246337891 85.88994598388672 33.82865524291992 83.70066070556641 28.65262985229492 C 81.58542633056641 23.65165710449219 78.55665588378906 19.15968322753906 74.698486328125 15.301513671875 C 70.84031677246094 11.44334411621094 66.34834289550781 8.414573669433594 61.34737396240234 6.299339294433594 C 56.17134475708008 4.110054016113281 50.67128753662109 3 45 3 M 45 0 C 69.85281372070312 0 90 20.14718627929688 90 45 C 90 69.85281372070312 69.85281372070312 90 45 90 C 20.14718627929688 90 0 69.85281372070312 0 45 C 0 20.14718627929688 20.14718627929688 0 45 0 Z" stroke="none" fill="#56838a"/>
          </g>
        </g>
      </g>
      <g id="compliant_4252360_1_" data-name="compliant_4252360 (1)" transform="translate(18.216 16.54)">
        <g id="Group_1164360" data-name="Group 1164360" transform="translate(5.798 0.834)">
          <path id="Path_982666" data-name="Path 982666" d="M116.871,7.5h35.4a.556.556,0,0,1,.556.556V23.467h-3.646a2.724,2.724,0,0,0-.19,5.442v3.38h0a1.111,1.111,0,0,0-.943,1.1v6.9a1.111,1.111,0,0,0,.943,1.1h0v3.38a2.724,2.724,0,0,0,.19,5.442h3.646v4.562h-7.672a1.112,1.112,0,0,0-1.112,1.112v2.212s0,0,0,0H143.2a1.112,1.112,0,0,0-1.112,1.112v3.546H116.315V8.056A.556.556,0,0,1,116.871,7.5Z" transform="translate(-116.315 -7.5)" fill="#fff3de"/>
        </g>
        <g id="Group_1164361" data-name="Group 1164361" transform="translate(38.012 0.834)">
          <path id="Path_982667" data-name="Path 982667" d="M116.97,23.467l-.1,0V8.056a.556.556,0,0,0-.556-.556h3.745a.556.556,0,0,1,.556.556V23.467Z" transform="translate(-116.315 -7.5)" fill="#ffe5c2"/>
          <path id="Path_982668" data-name="Path 982668" d="M116.414,391.629h3.646v4.562h-3.745v-4.565Z" transform="translate(-115.759 -348.923)" fill="#ffe5c2"/>
        </g>
        <g id="Group_1164379" data-name="Group 1164379" transform="translate(0.834 16.801)">
          <g id="Group_1164362" data-name="Group 1164362" transform="translate(20.656 11.469)">
            <path id="Path_982669" data-name="Path 982669" d="M164.442,254.29H159.3v3.8h5.146Z" transform="translate(-148.398 -254.29)" fill="#883f2e"/>
            <path id="Path_982670" data-name="Path 982670" d="M244.852,254.29H237.5v3.8h7.35Z" transform="translate(-237.502 -254.29)" fill="#883f2e"/>
          </g>
          <g id="Group_1164363" data-name="Group 1164363" transform="translate(20.656 13.438)">
            <path id="Path_982671" data-name="Path 982671" d="M164.442,272H159.3v1.833h5.146Z" transform="translate(-148.398 -272)" fill="#6d3326"/>
            <path id="Path_982672" data-name="Path 982672" d="M244.852,272H237.5v1.833h7.35Z" transform="translate(-237.502 -272)" fill="#6d3326"/>
          </g>
          <g id="Group_1164364" data-name="Group 1164364" transform="translate(0 10.582)">
            <path id="Path_982673" data-name="Path 982673" d="M303.616,249.1a2.788,2.788,0,0,0,2.788,2.788h17.235a.634.634,0,0,0,.634-.634v-4.309a.634.634,0,0,0-.634-.634H306.4A2.788,2.788,0,0,0,303.616,249.1Z" transform="translate(-303.616 -246.31)" fill="#ca6e59"/>
          </g>
          <g id="Group_1164365" data-name="Group 1164365" transform="translate(0.029 10.582)">
            <path id="Path_982674" data-name="Path 982674" d="M320.454,249.5a.634.634,0,0,0,.634-.634V246.31h2.522a.634.634,0,0,1,.634.634v4.309a.634.634,0,0,1-.634.634H306.375a2.788,2.788,0,0,1-2.759-2.387Z" transform="translate(-303.616 -246.31)" fill="#bb5d4c"/>
          </g>
          <g id="Group_1164366" data-name="Group 1164366" transform="translate(28.006 10.582)">
            <path id="Path_982675" data-name="Path 982675" d="M205.585,246.867v4.464a.556.556,0,0,0,.556.556h2.437a.556.556,0,0,0,.556-.556v-4.464a.556.556,0,0,0-.556-.556h-2.437A.556.556,0,0,0,205.585,246.867Z" transform="translate(-205.585 -246.311)" fill="#ca6e59"/>
          </g>
          <g id="Group_1164367" data-name="Group 1164367" transform="translate(29.387 10.582)">
            <path id="Path_982676" data-name="Path 982676" d="M206.141,251.331v-4.464a.556.556,0,0,0-.556-.556H207.2a.556.556,0,0,1,.556.556v4.464a.556.556,0,0,1-.556.556h-1.612A.556.556,0,0,0,206.141,251.331Z" transform="translate(-205.585 -246.311)" fill="#bb5d4c"/>
          </g>
          <g id="Group_1164368" data-name="Group 1164368" transform="translate(37.643 5.442)">
            <path id="Path_982677" data-name="Path 982677" d="M84.872,312.311h7.012a1.117,1.117,0,0,0,.169-.014v3.38c-.063,0-.126-.007-.19-.007h-6.97c-.064,0-.127,0-.19.007V312.3A1.1,1.1,0,0,0,84.872,312.311Z" transform="translate(-84.703 -299.821)" fill="#883f2e"/>
            <path id="Path_982678" data-name="Path 982678" d="M87.333,312.311a1.117,1.117,0,0,0,.169-.014v3.38c-.063,0-.126-.007-.19-.007H84.7v-3.358h2.63Z" transform="translate(-80.152 -299.821)" fill="#6d3326"/>
            <path id="Path_982679" data-name="Path 982679" d="M91.884,203.445H84.872a1.117,1.117,0,0,0-.169.014v-3.38c.063,0,.126.007.19.007h6.97c.064,0,.127,0,.19-.007v3.38A1.117,1.117,0,0,0,91.884,203.445Z" transform="translate(-84.703 -200.079)" fill="#883f2e"/>
            <path id="Path_982680" data-name="Path 982680" d="M87.333,203.444H84.7v-3.358h2.609c.064,0,.127,0,.19-.007v3.38a1.132,1.132,0,0,0-.169-.014Z" transform="translate(-80.152 -200.078)" fill="#6d3326"/>
          </g>
          <g id="Group_1164369" data-name="Group 1164369" transform="translate(36.701 8.807)">
            <path id="Path_982681" data-name="Path 982681" d="M76.225,231.464v6.9a1.112,1.112,0,0,0,1.112,1.112h7.012a1.112,1.112,0,0,0,1.112-1.112v-6.9a1.112,1.112,0,0,0-1.112-1.112H77.337A1.112,1.112,0,0,0,76.225,231.464Z" transform="translate(-76.225 -230.352)" fill="#ca6e59"/>
          </g>
          <g id="Group_1164370" data-name="Group 1164370" transform="translate(41.069 8.807)">
            <path id="Path_982682" data-name="Path 982682" d="M77.337,238.364v-6.9a1.112,1.112,0,0,0-1.112-1.112H79.98a1.112,1.112,0,0,1,1.112,1.112v6.9a1.112,1.112,0,0,1-1.112,1.112H76.225A1.112,1.112,0,0,0,77.337,238.364Z" transform="translate(-76.225 -230.352)" fill="#bb5d4c"/>
          </g>
          <g id="Group_1164373" data-name="Group 1164373" transform="translate(30.737 31.301)">
            <path id="Path_982683" data-name="Path 982683" d="M40.2,436.123a1.138,1.138,0,0,1-.006-.114V433.8a1.112,1.112,0,0,1,1.112-1.112H56.329a1.112,1.112,0,0,1,1.112,1.112v2.212a1.137,1.137,0,0,1-.006.114Z" transform="translate(-38.236 -432.685)" fill="#ca6e59"/>
            <path id="Path_982684" data-name="Path 982684" d="M41.3,436.123a1.137,1.137,0,0,0,.006-.114V433.8a1.112,1.112,0,0,0-1.112-1.112h3.758a1.112,1.112,0,0,1,1.112,1.112v2.212a1.138,1.138,0,0,1-.006.114Z" transform="translate(-25.86 -432.685)" fill="#bb5d4c"/>
            <g id="Group_1164371" data-name="Group 1164371" transform="translate(0 3.327)">
              <path id="Path_982685" data-name="Path 982685" d="M22.578,467.265H43.185a.556.556,0,0,0,.556-.556v-2.99a1.112,1.112,0,0,0-1.112-1.112H23.69a1.112,1.112,0,0,0-1.112,1.112Z" transform="translate(-22.578 -462.608)" fill="#883f2e"/>
            </g>
            <g id="Group_1164372" data-name="Group 1164372" transform="translate(16.336 3.327)">
              <path id="Path_982686" data-name="Path 982686" d="M23.69,466.709v-2.99a1.112,1.112,0,0,0-1.112-1.112h3.716a1.112,1.112,0,0,1,1.112,1.112v2.99a.556.556,0,0,1-.556.556H23.134A.556.556,0,0,0,23.69,466.709Z" transform="translate(-22.578 -462.608)" fill="#6d3326"/>
            </g>
          </g>
          <g id="Group_1164378" data-name="Group 1164378" transform="translate(35.109)">
            <g id="Group_1164374" data-name="Group 1164374" transform="translate(0 21.29)">
              <path id="Path_982687" data-name="Path 982687" d="M61.905,345.358a2.725,2.725,0,0,0,2.725,2.725H71.6a2.725,2.725,0,1,0,0-5.449H64.63A2.725,2.725,0,0,0,61.905,345.358Z" transform="translate(-61.905 -342.633)" fill="#ca6e59"/>
            </g>
            <g id="Group_1164375" data-name="Group 1164375" transform="translate(5.983 21.29)">
              <path id="Path_982688" data-name="Path 982688" d="M64.63,345.358a2.725,2.725,0,0,0-2.725-2.725h3.711a2.725,2.725,0,1,1,0,5.449H61.9A2.725,2.725,0,0,0,64.63,345.358Z" transform="translate(-61.905 -342.633)" fill="#bb5d4c"/>
            </g>
            <g id="Group_1164376" data-name="Group 1164376" transform="translate(0)">
              <path id="Path_982689" data-name="Path 982689" d="M61.905,153.853a2.725,2.725,0,0,0,2.725,2.725H71.6a2.725,2.725,0,0,0,0-5.449H64.63A2.725,2.725,0,0,0,61.905,153.853Z" transform="translate(-61.905 -151.128)" fill="#ca6e59"/>
            </g>
            <g id="Group_1164377" data-name="Group 1164377" transform="translate(5.983)">
              <path id="Path_982690" data-name="Path 982690" d="M64.63,153.853a2.725,2.725,0,0,0-2.725-2.725h3.711a2.725,2.725,0,1,1,0,5.449H61.9A2.725,2.725,0,0,0,64.63,153.853Z" transform="translate(-61.905 -151.128)" fill="#bb5d4c"/>
            </g>
          </g>
        </g>
        <g id="Group_1164382" data-name="Group 1164382" transform="translate(16.255 6.015)">
          <g id="Group_1164380" data-name="Group 1164380">
            <circle id="Ellipse_11659" data-name="Ellipse 11659" cx="7.801" cy="7.801" r="7.801" fill="#4fc123"/>
          </g>
          <g id="Group_1164381" data-name="Group 1164381" transform="translate(5.932)">
            <path id="Path_982691" data-name="Path 982691" d="M216.3,61.908a7.8,7.8,0,0,0-5.932-7.574,7.8,7.8,0,1,1,0,15.148A7.8,7.8,0,0,0,216.3,61.908Z" transform="translate(-210.372 -54.107)" fill="#47a920"/>
          </g>
        </g>
        <g id="Group_1164383" data-name="Group 1164383">
          <path id="Path_982692" data-name="Path 982692" d="M18.7,26.549h1.343V12.118a.834.834,0,0,1,.859-.833.857.857,0,0,1,.808.868v14.4H27.3a.834.834,0,1,1,0,1.668H18.7a1.954,1.954,0,1,0,0,3.908H35.734V28.217H31.189a.834.834,0,0,1,0-1.668h4.745a1.469,1.469,0,0,1,1.347.887h5.9a1.391,1.391,0,0,1,1.294-.887H46.91a1.391,1.391,0,0,1,1.294.887h3.574V26.72a1.944,1.944,0,0,1,.943-1.664V22.933a3.558,3.558,0,0,1,1.024-6.966h2.812V1.668H21.71V8.227a.834.834,0,0,1-.859.833.857.857,0,0,1-.808-.868V1.39A1.39,1.39,0,0,1,21.432,0h35.4a1.39,1.39,0,0,1,1.39,1.39V15.967h2.49a3.558,3.558,0,0,1,1.024,6.966v2.123a1.944,1.944,0,0,1,.943,1.664v6.9a1.944,1.944,0,0,1-.943,1.664v2.123a3.558,3.558,0,0,1-1.024,6.966h-2.49v2.895h6.517a1.948,1.948,0,0,1,1.946,1.946V50.6H66.7a1.948,1.948,0,0,1,1.946,1.946v2.99a1.391,1.391,0,0,1-1.39,1.39H21.432a1.39,1.39,0,0,1-1.39-1.39V33.793H18.7a3.622,3.622,0,0,1,0-7.244ZM43.084,29.1H37.4v2.134h5.683Zm3.548-.887H44.752v3.908h1.881Zm5.146.887H48.3v2.134h3.478Zm10.827-9.578a1.893,1.893,0,0,0-1.891-1.891h-6.97a1.891,1.891,0,0,0,0,3.782h6.97a1.893,1.893,0,0,0,1.891-1.891ZM60.736,33.9a.278.278,0,0,0,.278-.278v-6.9a.278.278,0,0,0-.278-.278H53.724a.278.278,0,0,0-.278.278v6.9a.278.278,0,0,0,.278.278Zm-6.347,1.668v1.691h5.682V35.567Zm5.682-10.792V23.084H54.389v1.691Zm.644,17.932a1.891,1.891,0,1,0,0-3.782h-6.97a1.891,1.891,0,0,0,0,3.782ZM47.482,55.252h19.5V52.541a.278.278,0,0,0-.278-.278H61.539a.834.834,0,0,1,0-1.668h3.48V49.214a.278.278,0,0,0-.278-.278H49.719a.278.278,0,0,0-.278.278V50.6h8.207a.834.834,0,1,1,0,1.668H47.76a.278.278,0,0,0-.278.278Zm-25.772,0h24.1V52.541A1.948,1.948,0,0,1,47.76,50.6h.013V49.214a1.948,1.948,0,0,1,1.946-1.946h6.838V44.374H53.745a3.558,3.558,0,0,1-1.024-6.966V35.285a1.944,1.944,0,0,1-.943-1.664v-.716H48.2a1.391,1.391,0,0,1-1.294.887H44.474a1.391,1.391,0,0,1-1.294-.887h-5.9a1.469,1.469,0,0,1-1.347.887H21.71v21.46Z" transform="translate(-15.078 0)"/>
          <path id="Path_982693" data-name="Path 982693" d="M220.141,55.242a8.635,8.635,0,1,1-8.635-8.635A8.644,8.644,0,0,1,220.141,55.242Zm-15.6,0a6.967,6.967,0,1,0,6.967-6.967A6.975,6.975,0,0,0,204.54,55.242Z" transform="translate(-187.451 -41.426)"/>
          <path id="Path_982694" data-name="Path 982694" d="M253.127,102.814a.834.834,0,1,1,1.179,1.179l-2.565,2.565a.834.834,0,0,1-1.179,0l-3.975-3.975a.834.834,0,1,1,1.179-1.179l3.386,3.386Z" transform="translate(-226.694 -89.913)"/>
          <path id="Path_982695" data-name="Path 982695" d="M260.682,327.9a.834.834,0,0,1-.834.834H244.515a.834.834,0,0,1,0-1.668h15.334A.834.834,0,0,1,260.682,327.9Z" transform="translate(-232.529 -290.708)"/>
          <path id="Path_982696" data-name="Path 982696" d="M311.334,363.546h7.905a.834.834,0,0,1,0,1.668h-7.905a.834.834,0,0,1,0-1.668Z" transform="translate(-299.348 -323.13)"/>
          <path id="Path_982697" data-name="Path 982697" d="M249.053,365.214h-4.538a.834.834,0,1,1,0-1.668h4.538a.834.834,0,1,1,0,1.668Z" transform="translate(-221.733 -323.13)"/>
          <path id="Path_982698" data-name="Path 982698" d="M244.514,400.023h15.334a.834.834,0,1,1,0,1.668H244.514a.834.834,0,1,1,0-1.668Z" transform="translate(-232.528 -355.552)"/>
          <path id="Path_982699" data-name="Path 982699" d="M346.334,436.5h4.014a.834.834,0,1,1,0,1.668h-4.014a.834.834,0,0,1,0-1.668Z" transform="translate(-334.348 -387.973)"/>
          <path id="Path_982700" data-name="Path 982700" d="M244.515,436.5h8.762a.834.834,0,0,1,0,1.668h-8.762a.834.834,0,0,1,0-1.668Z" transform="translate(-225.958 -387.973)"/>
        </g>
      </g>
    </g>
  </g>
</svg>
