<svg xmlns="http://www.w3.org/2000/svg" xmlns:xlink="http://www.w3.org/1999/xlink" width="113" height="113" viewBox="0 0 113 113">
  <defs>
    <filter id="Path_982547" x="0" y="0" width="113" height="113" filterUnits="userSpaceOnUse">
      <feOffset dy="3" input="SourceAlpha"/>
      <feGaussianBlur stdDeviation="3" result="blur"/>
      <feFlood flood-opacity="0.161"/>
      <feComposite operator="in" in2="blur"/>
      <feComposite in="SourceGraphic"/>
    </filter>
  </defs>
  <g id="Group_1164586" data-name="Group 1164586" transform="translate(-828 -672)">
    <g id="Group_1164537" data-name="Group 1164537" transform="translate(630)">
      <g id="Group_1164460" data-name="Group 1164460" transform="translate(207 678)">
        <g id="Group_1164237" data-name="Group 1164237" transform="translate(0)">
          <g id="Group_1163948" data-name="Group 1163948">
            <g id="Group_1158168" data-name="Group 1158168">
              <g id="Group_1152576" data-name="Group 1152576">
                <g id="Group_1148633" data-name="Group 1148633">
                  <g id="Group_1148525" data-name="Group 1148525">
                    <g transform="matrix(1, 0, 0, 1, -9, -6)" filter="url(#Path_982547)">
                      <g id="Path_982547-2" data-name="Path 982547" transform="translate(9 6)" fill="#f4fdfe">
                        <path d="M 47.5 93.5 C 41.28937149047852 93.5 35.26533508300781 92.28397369384766 29.59518623352051 89.88570404052734 C 24.11771965026855 87.56893157958984 19.19813346862793 84.25196075439453 14.97309303283691 80.02691650390625 C 10.74804019927979 75.80186462402344 7.431066513061523 70.88229370117188 5.114293098449707 65.40481567382812 C 2.716026782989502 59.73468017578125 1.5 53.71062850952148 1.5 47.5 C 1.5 41.28937149047852 2.716026782989502 35.26533508300781 5.114293098449707 29.59518623352051 C 7.431066513061523 24.11771965026855 10.74804019927979 19.19813346862793 14.97309303283691 14.97309303283691 C 19.19813346862793 10.74804019927979 24.11771965026855 7.431066513061523 29.59518623352051 5.114293098449707 C 35.26533508300781 2.716026782989502 41.28937149047852 1.5 47.5 1.5 C 53.71062850952148 1.5 59.73468017578125 2.716026782989502 65.40481567382812 5.114293098449707 C 70.88229370117188 7.431066513061523 75.80186462402344 10.74804019927979 80.02691650390625 14.97309303283691 C 84.25196075439453 19.19813346862793 87.56893157958984 24.11771965026855 89.88570404052734 29.59518623352051 C 92.28397369384766 35.26533508300781 93.5 41.28937149047852 93.5 47.5 C 93.5 53.71062850952148 92.28397369384766 59.73468017578125 89.88570404052734 65.40481567382812 C 87.56893157958984 70.88229370117188 84.25196075439453 75.80186462402344 80.02691650390625 80.02691650390625 C 75.80186462402344 84.25196075439453 70.88229370117188 87.56893157958984 65.40481567382812 89.88570404052734 C 59.73468017578125 92.28397369384766 53.71062850952148 93.5 47.5 93.5 Z" stroke="none"/>
                        <path d="M 47.5 3 C 41.49121475219727 3 35.66376876831055 4.176155090332031 30.17950439453125 6.495796203613281 C 24.88084411621094 8.736953735351562 20.12152099609375 11.94598388671875 16.03375244140625 16.03375244140625 C 11.94598388671875 20.12152099609375 8.736953735351562 24.88084411621094 6.495796203613281 30.17950439453125 C 4.176155090332031 35.66376876831055 3 41.49121475219727 3 47.5 C 3 53.50878524780273 4.176155090332031 59.33623123168945 6.495796203613281 64.82049560546875 C 8.736953735351562 70.11915588378906 11.94598388671875 74.87847900390625 16.03375244140625 78.96624755859375 C 20.12152099609375 83.05401611328125 24.88084411621094 86.26304626464844 30.17950439453125 88.50419616699219 C 35.66376876831055 90.82384490966797 41.49121475219727 92 47.5 92 C 53.50878524780273 92 59.33623123168945 90.82384490966797 64.82049560546875 88.50419616699219 C 70.11915588378906 86.26304626464844 74.87847900390625 83.05401611328125 78.96624755859375 78.96624755859375 C 83.05401611328125 74.87847900390625 86.26304626464844 70.11915588378906 88.50419616699219 64.82049560546875 C 90.82384490966797 59.33623123168945 92 53.50878524780273 92 47.5 C 92 41.49121475219727 90.82384490966797 35.66376876831055 88.50419616699219 30.17950439453125 C 86.26304626464844 24.88084411621094 83.05401611328125 20.12152099609375 78.96624755859375 16.03375244140625 C 74.87847900390625 11.94598388671875 70.11915588378906 8.736953735351562 64.82049560546875 6.495796203613281 C 59.33623123168945 4.176155090332031 53.50878524780273 3 47.5 3 M 47.5 0 C 73.7335205078125 0 95 21.2664794921875 95 47.5 C 95 73.7335205078125 73.7335205078125 95 47.5 95 C 21.2664794921875 95 0 73.7335205078125 0 47.5 C 0 21.2664794921875 21.2664794921875 0 47.5 0 Z" stroke="none" fill="#56838a"/>
                      </g>
                    </g>
                  </g>
                </g>
              </g>
            </g>
          </g>
        </g>
      </g>
      <g id="swear_2328393" transform="translate(225.51 696.511)">
        <g id="Group_1164397" data-name="Group 1164397" transform="translate(1.935 1.935)">
          <path id="Path_982724" data-name="Path 982724" d="M2.935,2H30.99a.938.938,0,0,1,.935.935V21.021a5.651,5.651,0,0,0-1.87-.318,1.876,1.876,0,0,0-1.87,1.87v1.87H22.573v4.451a1.156,1.156,0,0,1-2.188.524L17.9,24.444H2.935A.938.938,0,0,1,2,23.508V2.935A.938.938,0,0,1,2.935,2Z" transform="translate(-2 -2)" fill="#e6e9ed"/>
          <g id="Group_1164396" data-name="Group 1164396" transform="translate(0 11.222)">
            <path id="Path_982725" data-name="Path 982725" d="M29.481,14v2.805a.938.938,0,0,1-.935.935H22.935A.938.938,0,0,1,22,16.805V14Z" transform="translate(-3.297 -14)" fill="#b27946"/>
            <path id="Path_982726" data-name="Path 982726" d="M13.481,14v2.805a.938.938,0,0,1-.935.935H6.935A.938.938,0,0,1,6,16.805V14Z" transform="translate(-2.259 -14)" fill="#b27946"/>
            <path id="Path_982727" data-name="Path 982727" d="M16.962,34.935v3.741a.938.938,0,0,1-.935.935H2.935A.938.938,0,0,1,2,38.676V34.935A.938.938,0,0,1,2.935,34H16.027A.938.938,0,0,1,16.962,34.935Z" transform="translate(-2 -15.297)" fill="#b27946"/>
            <path id="Path_982728" data-name="Path 982728" d="M16.962,56.935v3.741a.938.938,0,0,1-.935.935H2.935A.938.938,0,0,1,2,60.676V56.935A.938.938,0,0,1,2.935,56H16.027A.938.938,0,0,1,16.962,56.935Z" transform="translate(-2 -16.724)" fill="#b27946"/>
          </g>
          <path id="Path_982729" data-name="Path 982729" d="M15.222,50.287v4.676H4V40H15.222V50.287Z" transform="translate(-2.13 -4.464)" fill="#d3a06c"/>
          <path id="Path_982730" data-name="Path 982730" d="M34.7,46.87V50.61H16V45H33.253l.009-.009A20,20,0,0,0,34.7,46.87Z" transform="translate(-2.908 -4.788)" fill="#cf9e76"/>
          <path id="Path_982731" data-name="Path 982731" d="M56.573,47V61.027H36V47Z" transform="translate(-4.205 -4.918)" fill="#b4dd7f"/>
          <path id="Path_982732" data-name="Path 982732" d="M54.314,16.027a2.805,2.805,0,0,1,5.611,0v15.7a22.255,22.255,0,0,1-3.741,12.353H35.611a20.006,20.006,0,0,1-1.44-1.88A23.264,23.264,0,0,1,30,28.914v-6.34a1.876,1.876,0,0,1,1.87-1.87,5.651,5.651,0,0,1,1.87.318l2.095,1.328a5.559,5.559,0,0,1,1.646,3.965V8.546a2.805,2.805,0,0,1,5.611,0V4.805a2.805,2.805,0,0,1,5.611,0V8.546a2.805,2.805,0,1,1,5.611,0Z" transform="translate(-3.816 -2)" fill="#f0d0b4"/>
        </g>
        <g id="Group_1164398" data-name="Group 1164398" transform="translate(1 1)">
          <path id="Path_982733" data-name="Path 982733" d="M58.979,15.962a3.744,3.744,0,0,0-3.741-3.741,3.7,3.7,0,0,0-1.87.52V8.481a3.744,3.744,0,0,0-3.741-3.741,3.7,3.7,0,0,0-1.87.52v-.52a3.741,3.741,0,0,0-7.481,0v.52a3.7,3.7,0,0,0-1.87-.52,3.744,3.744,0,0,0-3.741,3.741v13.2a6.558,6.558,0,0,0-1.87-1.333V2.87A1.872,1.872,0,0,0,30.925,1H2.87A1.872,1.872,0,0,0,1,2.87V23.444a1.872,1.872,0,0,0,1.87,1.87H17.255l2.228,4.455a2.091,2.091,0,0,0,3.961-.935v-3.52h3.741V28.85a24.248,24.248,0,0,0,3.4,12.362H15.962V38.406a1.872,1.872,0,0,0,1.87-1.87V32.795a1.872,1.872,0,0,0-1.87-1.87H2.87A1.872,1.872,0,0,0,1,32.795v3.741a1.872,1.872,0,0,0,1.87,1.87V51.5A1.872,1.872,0,0,0,1,53.368v3.741a1.872,1.872,0,0,0,1.87,1.87H15.962a1.872,1.872,0,0,0,1.87-1.87V53.368a1.872,1.872,0,0,0-1.87-1.87V48.692H32.795V58.979H55.238V44.28a23.126,23.126,0,0,0,3.741-12.617ZM21.573,23.444v5.39a.228.228,0,0,1-.418.1l-2.745-5.488H2.87V2.87H30.925V19.778a6.57,6.57,0,0,0-.935-.075,2.809,2.809,0,0,0-2.805,2.805v.935ZM2.87,32.795H15.962v3.741H2.87ZM15.963,57.109H2.87V53.368H15.962ZM4.741,51.5V38.406h9.351V51.5Zm11.222-4.676V43.082h15.85c.311.429.642.845.983,1.255v2.486Zm18.7,10.287V44.951h18.7V57.109ZM57.109,31.663A21.263,21.263,0,0,1,53.8,43.082H34.166A22.382,22.382,0,0,1,29.054,28.85V22.508a.936.936,0,0,1,.935-.935,4.681,4.681,0,0,1,4.676,4.676V31.86h1.87V8.481a1.87,1.87,0,1,1,3.741,0V26.533h1.87V4.741a1.87,1.87,0,0,1,3.741,0V26.249h1.87V8.481a1.87,1.87,0,0,1,3.741,0V26.249h1.87V15.962a1.87,1.87,0,1,1,3.741,0Z" transform="translate(-1 -1)"/>
          <path id="Path_982734" data-name="Path 982734" d="M19.962,16.222a1.872,1.872,0,0,0,1.87,1.87h5.611a1.872,1.872,0,0,0,1.87-1.87V13.133L25.138,6.87H18.092V5h-1.87V6.87H9.175L5,13.133v3.089a1.872,1.872,0,0,0,1.87,1.87h5.611a1.872,1.872,0,0,0,1.87-1.87V13.133L11.424,8.741h4.8V19.962H12.481v1.87h9.351v-1.87H18.092V8.741h4.8l-2.928,4.392Zm-13.092,0v-1.87h5.611v1.87Zm4.8-3.741H7.682l1.994-2.99Zm10.163,3.741v-1.87h5.611v1.87Zm2.805-6.73,1.994,2.99H22.645Z" transform="translate(-1.259 -1.259)"/>
        </g>
      </g>
    </g>
  </g>
</svg>
