<svg xmlns="http://www.w3.org/2000/svg" xmlns:xlink="http://www.w3.org/1999/xlink" width="113" height="113" viewBox="0 0 113 113">
  <defs>
    <filter id="Path_982547" x="0" y="0" width="113" height="113" filterUnits="userSpaceOnUse">
      <feOffset dy="3" input="SourceAlpha"/>
      <feGaussianBlur stdDeviation="3" result="blur"/>
      <feFlood flood-opacity="0.161"/>
      <feComposite operator="in" in2="blur"/>
      <feComposite in="SourceGraphic"/>
    </filter>
  </defs>
  <g id="Group_1164580" data-name="Group 1164580" transform="translate(-618 -683)">
    <g id="Group_1164534" data-name="Group 1164534">
      <g id="Group_1164455" data-name="Group 1164455" transform="translate(627 689)">
        <g id="Group_1164237" data-name="Group 1164237">
          <g id="Group_1163948" data-name="Group 1163948">
            <g id="Group_1158168" data-name="Group 1158168" transform="translate(0)">
              <g id="Group_1152576" data-name="Group 1152576">
                <g id="Group_1148633" data-name="Group 1148633">
                  <g id="Group_1148525" data-name="Group 1148525">
                    <g transform="matrix(1, 0, 0, 1, -9, -6)" filter="url(#Path_982547)">
                      <g id="Path_982547-2" data-name="Path 982547" transform="translate(9 6)" fill="#f4fdfe">
                        <path d="M 47.5 93.5 C 41.28937149047852 93.5 35.26533508300781 92.28397369384766 29.59518623352051 89.88570404052734 C 24.11771965026855 87.56893157958984 19.19813346862793 84.25196075439453 14.97309303283691 80.02691650390625 C 10.74804019927979 75.80186462402344 7.431066513061523 70.88229370117188 5.114293098449707 65.40481567382812 C 2.716026782989502 59.73468017578125 1.5 53.71062850952148 1.5 47.5 C 1.5 41.28937149047852 2.716026782989502 35.26533508300781 5.114293098449707 29.59518623352051 C 7.431066513061523 24.11771965026855 10.74804019927979 19.19813346862793 14.97309303283691 14.97309303283691 C 19.19813346862793 10.74804019927979 24.11771965026855 7.431066513061523 29.59518623352051 5.114293098449707 C 35.26533508300781 2.716026782989502 41.28937149047852 1.5 47.5 1.5 C 53.71062850952148 1.5 59.73468017578125 2.716026782989502 65.40481567382812 5.114293098449707 C 70.88229370117188 7.431066513061523 75.80186462402344 10.74804019927979 80.02691650390625 14.97309303283691 C 84.25196075439453 19.19813346862793 87.56893157958984 24.11771965026855 89.88570404052734 29.59518623352051 C 92.28397369384766 35.26533508300781 93.5 41.28937149047852 93.5 47.5 C 93.5 53.71062850952148 92.28397369384766 59.73468017578125 89.88570404052734 65.40481567382812 C 87.56893157958984 70.88229370117188 84.25196075439453 75.80186462402344 80.02691650390625 80.02691650390625 C 75.80186462402344 84.25196075439453 70.88229370117188 87.56893157958984 65.40481567382812 89.88570404052734 C 59.73468017578125 92.28397369384766 53.71062850952148 93.5 47.5 93.5 Z" stroke="none"/>
                        <path d="M 47.5 3 C 41.49121475219727 3 35.66376876831055 4.176155090332031 30.17950439453125 6.495796203613281 C 24.88084411621094 8.736953735351562 20.12152099609375 11.94598388671875 16.03375244140625 16.03375244140625 C 11.94598388671875 20.12152099609375 8.736953735351562 24.88084411621094 6.495796203613281 30.17950439453125 C 4.176155090332031 35.66376876831055 3 41.49121475219727 3 47.5 C 3 53.50878524780273 4.176155090332031 59.33623123168945 6.495796203613281 64.82049560546875 C 8.736953735351562 70.11915588378906 11.94598388671875 74.87847900390625 16.03375244140625 78.96624755859375 C 20.12152099609375 83.05401611328125 24.88084411621094 86.26304626464844 30.17950439453125 88.50419616699219 C 35.66376876831055 90.82384490966797 41.49121475219727 92 47.5 92 C 53.50878524780273 92 59.33623123168945 90.82384490966797 64.82049560546875 88.50419616699219 C 70.11915588378906 86.26304626464844 74.87847900390625 83.05401611328125 78.96624755859375 78.96624755859375 C 83.05401611328125 74.87847900390625 86.26304626464844 70.11915588378906 88.50419616699219 64.82049560546875 C 90.82384490966797 59.33623123168945 92 53.50878524780273 92 47.5 C 92 41.49121475219727 90.82384490966797 35.66376876831055 88.50419616699219 30.17950439453125 C 86.26304626464844 24.88084411621094 83.05401611328125 20.12152099609375 78.96624755859375 16.03375244140625 C 74.87847900390625 11.94598388671875 70.11915588378906 8.736953735351562 64.82049560546875 6.495796203613281 C 59.33623123168945 4.176155090332031 53.50878524780273 3 47.5 3 M 47.5 0 C 73.7335205078125 0 95 21.2664794921875 95 47.5 C 95 73.7335205078125 73.7335205078125 95 47.5 95 C 21.2664794921875 95 0 73.7335205078125 0 47.5 C 0 21.2664794921875 21.2664794921875 0 47.5 0 Z" stroke="none" fill="#56838a"/>
                      </g>
                    </g>
                  </g>
                </g>
              </g>
            </g>
          </g>
        </g>
      </g>
      <g id="Page-1" transform="translate(645 707)">
        <g id="_063---Course-Students" data-name="063---Course-Students">
          <g id="Icons_copy" transform="translate(1 1)">
            <path id="Shape" d="M40,38a2.006,2.006,0,0,1-2,2H34.19A5.884,5.884,0,0,0,35,37a5.47,5.47,0,0,0-.09-1H38A2.015,2.015,0,0,1,40,38Z" fill="#9e9e9e"/>
            <path id="Shape-2" data-name="Shape" d="M23.81,40H20a2,2,0,0,1,0-4h3.09A5.47,5.47,0,0,0,23,37,5.857,5.857,0,0,0,23.81,40Z" fill="#9e9e9e"/>
            <path id="Shape-3" data-name="Shape" d="M37,49v7a2.015,2.015,0,0,1-2,2H23a2.006,2.006,0,0,1-2-2V49a6,6,0,0,1,6-6h4A6,6,0,0,1,37,49Z" fill="#ef314c"/>
            <path id="Shape-4" data-name="Shape" d="M31,43H28a6,6,0,0,1,6,6v7a2.015,2.015,0,0,1-2,2h3a2.015,2.015,0,0,0,2-2V49A6,6,0,0,0,31,43Z" fill="#bb193b"/>
            <path id="Shape-5" data-name="Shape" d="M35,37a5.884,5.884,0,0,1-.81,3,5.989,5.989,0,0,1-10.38,0A5.857,5.857,0,0,1,23,37a5.47,5.47,0,0,1,.09-1,5.993,5.993,0,0,1,11.82,0A5.47,5.47,0,0,1,35,37Z" fill="#ffe0b2"/>
            <path id="Shape-6" data-name="Shape" d="M34.91,36a5.949,5.949,0,0,0-7.41-4.8,5.83,5.83,0,0,1,1.81.8,5.951,5.951,0,0,1,2.6,4A5.47,5.47,0,0,1,32,37a5.884,5.884,0,0,1-.81,3,5.989,5.989,0,0,1-3.69,2.8A5.961,5.961,0,0,0,34.19,40,5.884,5.884,0,0,0,35,37,5.47,5.47,0,0,0,34.91,36Z" fill="#dfc49c"/>
            <path id="Shape-7" data-name="Shape" d="M16,49v7a2.015,2.015,0,0,1-2,2H2a2.006,2.006,0,0,1-2-2V49a6,6,0,0,1,6-6h4A6,6,0,0,1,16,49Z" fill="#ff9801"/>
            <path id="Shape-8" data-name="Shape" d="M10,43H7a6,6,0,0,1,6,6v7a2.015,2.015,0,0,1-2,2h3a2.015,2.015,0,0,0,2-2V49A6,6,0,0,0,10,43Z" fill="#f57c00"/>
            <path id="Shape-9" data-name="Shape" d="M14,37a6,6,0,1,1-6-6,5.646,5.646,0,0,1,1.37.16,5.806,5.806,0,0,1,1.94.84A5.983,5.983,0,0,1,14,37Z" fill="#ffe0b2"/>
            <path id="Shape-10" data-name="Shape" d="M11.31,32a5.806,5.806,0,0,0-1.94-.84A5.646,5.646,0,0,0,8,31a5.963,5.963,0,0,0-1.509.2A5.816,5.816,0,0,1,8.31,32,5.992,5.992,0,0,1,6.5,42.8,5.994,5.994,0,0,0,11.31,32Z" fill="#dfc49c"/>
            <path id="Shape-11" data-name="Shape" d="M58,49v7a2.015,2.015,0,0,1-2,2H44a2.006,2.006,0,0,1-2-2V49a6,6,0,0,1,6-6h4A6,6,0,0,1,58,49Z" fill="#673ab7"/>
            <path id="Shape-12" data-name="Shape" d="M52,43H49a6,6,0,0,1,6,6v7a2.015,2.015,0,0,1-2,2h3a2.015,2.015,0,0,0,2-2V49A6,6,0,0,0,52,43Z" fill="#4527a0"/>
            <path id="Shape-13" data-name="Shape" d="M56,37a6,6,0,1,1-9.31-5,5.806,5.806,0,0,1,1.94-.84A5.646,5.646,0,0,1,50,31a6,6,0,0,1,6,6Z" fill="#ffe0b2"/>
            <path id="Shape-14" data-name="Shape" d="M50,31a5.646,5.646,0,0,0-1.37.16c-.042.009-.079.029-.121.04A5.991,5.991,0,0,1,48.5,42.8,6,6,0,1,0,50,31Z" fill="#dfc49c"/>
            <path id="Shape-15" data-name="Shape" d="M49,27v3a1.956,1.956,0,0,1-.37,1.16,5.806,5.806,0,0,0-1.94.84H32.31a5.978,5.978,0,0,0-6.62,0H11.31a5.806,5.806,0,0,0-1.94-.84A1.956,1.956,0,0,1,9,30V27Z" fill="#9e9e9e"/>
            <path id="Shape-16" data-name="Shape" d="M46,27v3a1.956,1.956,0,0,1-.37,1.16,5.806,5.806,0,0,0-1.94.84h3a5.806,5.806,0,0,1,1.94-.84A1.956,1.956,0,0,0,49,30V27Z" fill="#707070"/>
            <path id="Shape-17" data-name="Shape" d="M26,31a5.9,5.9,0,0,0-3.31,1h3a5.83,5.83,0,0,1,1.81-.8A6,6,0,0,0,26,31Z" fill="#707070"/>
            <path id="Shape-18" data-name="Shape" d="M49,2V27H9V2a2.006,2.006,0,0,1,2-2H47A2.006,2.006,0,0,1,49,2Z" fill="#00bcd4"/>
            <path id="Shape-19" data-name="Shape" d="M47,0H44a2.006,2.006,0,0,1,2,2V27h3V2A2.006,2.006,0,0,0,47,0Z" fill="#00838f"/>
            <path id="Shape-20" data-name="Shape" d="M29,17V6a2.006,2.006,0,0,1,2-2h8a1,1,0,0,1,1,1V20a1,1,0,0,1-1,1H31a2,2,0,0,0-1.759,1.048.278.278,0,0,1-.482,0A2,2,0,0,0,27,21H19a1,1,0,0,1-1-1V5a1,1,0,0,1,1-1h8a2.006,2.006,0,0,1,2,2" fill="#ffe0b2"/>
            <path id="Shape-21" data-name="Shape" d="M39,4H36a1,1,0,0,1,1,1V20a1,1,0,0,1-1,1h3a1,1,0,0,0,1-1V5A1,1,0,0,0,39,4Z" fill="#dfc49c"/>
          </g>
          <g id="Icons">
            <path id="Shape-22" data-name="Shape" d="M55.4,43.433A7,7,0,0,0,51,31V3a3,3,0,0,0-3-3H12A3,3,0,0,0,9,3V31A7,7,0,0,0,4.6,43.433,7.007,7.007,0,0,0,0,50v7a3,3,0,0,0,3,3H15a3,3,0,0,0,3-3V50a7.007,7.007,0,0,0-4.6-6.566A6.974,6.974,0,0,0,14.736,34h9.528a6.957,6.957,0,0,0-.969,2H21a3,3,0,0,0,0,6h3.264A7.053,7.053,0,0,0,25.6,43.433,7.007,7.007,0,0,0,21,50v7a3,3,0,0,0,3,3H36a3,3,0,0,0,3-3V50a7.007,7.007,0,0,0-4.6-6.566A7.053,7.053,0,0,0,35.736,42H39a3,3,0,0,0,0-6H36.7a6.957,6.957,0,0,0-.969-2h9.528A6.974,6.974,0,0,0,46.6,43.433,7.007,7.007,0,0,0,42,50v7a3,3,0,0,0,3,3H57a3,3,0,0,0,3-3V50A7.007,7.007,0,0,0,55.4,43.433ZM11,31V29h3a1,1,0,0,0,0-2H11V3a1,1,0,0,1,1-1H48a1,1,0,0,1,1,1V27H18a1,1,0,0,0,0,2H49v2a1.037,1.037,0,0,1-.046.307,6.943,6.943,0,0,0-1.54.693H33.586a6.93,6.93,0,0,0-7.172,0H12.586a6.943,6.943,0,0,0-1.54-.693A1.037,1.037,0,0,1,11,31Zm24,7a5,5,0,0,1-4.99,5h-.02A5,5,0,1,1,35,38ZM11,45a5.006,5.006,0,0,1,5,5v7a1,1,0,0,1-2,0V50a1,1,0,0,0-2,0v7a2.966,2.966,0,0,0,.184,1H5.816A2.966,2.966,0,0,0,6,57V50a1,1,0,0,0-2,0v7a1,1,0,0,1-2,0V50a5.006,5.006,0,0,1,5-5ZM9.01,43H8.99a5,5,0,1,1,.02,0ZM21,40a.978.978,0,0,1-.712-.306A.957.957,0,0,1,20,39a1,1,0,0,1,1-1h2a6.991,6.991,0,0,0,.3,2Zm11,5a5.006,5.006,0,0,1,5,5v7a1,1,0,0,1-2,0V50a1,1,0,0,0-2,0v7a2.966,2.966,0,0,0,.184,1H26.816A2.966,2.966,0,0,0,27,57V50a1,1,0,0,0-2,0v7a1,1,0,0,1-2,0V50a5.006,5.006,0,0,1,5-5Zm7-7a.978.978,0,0,1,.712.306A.957.957,0,0,1,40,39a1,1,0,0,1-1,1H36.7a6.991,6.991,0,0,0,.3-2Zm7,0a5,5,0,1,1,5.01,5h-.02A5,5,0,0,1,46,38ZM58,57a1,1,0,0,1-2,0V50a1,1,0,0,0-2,0v7a2.966,2.966,0,0,0,.184,1H47.816A2.966,2.966,0,0,0,48,57V50a1,1,0,0,0-2,0v7a1,1,0,0,1-2,0V50a5.006,5.006,0,0,1,5-5h4a5.006,5.006,0,0,1,5,5Z"/>
            <path id="Shape-23" data-name="Shape" d="M20,23h8a1,1,0,0,1,.88.524,1.277,1.277,0,0,0,2.24,0A1,1,0,0,1,32,23h8a2,2,0,0,0,2-2V6a2,2,0,0,0-2-2H32a2.987,2.987,0,0,0-2,.766A2.987,2.987,0,0,0,28,4H20a2,2,0,0,0-2,2V21A2,2,0,0,0,20,23ZM20,6h8a1,1,0,0,1,1,1V18a1,1,0,0,0,2,0V7a1,1,0,0,1,1-1h8V21H32a3,3,0,0,0-2,.764A3,3,0,0,0,28,21H20Z"/>
            <path id="Shape-24" data-name="Shape" d="M34,10h3a1,1,0,0,0,0-2H34a1,1,0,0,0,0,2Z"/>
            <path id="Shape-25" data-name="Shape" d="M34,14h3a1,1,0,0,0,0-2H34a1,1,0,0,0,0,2Z"/>
            <path id="Shape-26" data-name="Shape" d="M34,18h3a1,1,0,0,0,0-2H34a1,1,0,0,0,0,2Z"/>
            <path id="Shape-27" data-name="Shape" d="M26,8H23a1,1,0,0,0,0,2h3a1,1,0,0,0,0-2Z"/>
            <path id="Shape-28" data-name="Shape" d="M26,12H23a1,1,0,0,0,0,2h3a1,1,0,0,0,0-2Z"/>
            <path id="Shape-29" data-name="Shape" d="M26,16H23a1,1,0,0,0,0,2h3a1,1,0,0,0,0-2Z"/>
          </g>
        </g>
      </g>
    </g>
  </g>
</svg>
